<svg width="267" height="298" viewBox="0 0 267 298" fill="none" xmlns="http://www.w3.org/2000/svg">
<path fill-rule="evenodd" clip-rule="evenodd" d="M267 25.6C267 16.6392 267 12.1587 265.256 8.73615C263.722 5.72556 261.274 3.27787 258.264 1.7439C254.841 0 250.361 0 241.4 0H25.6C16.6392 0 12.1587 0 8.73615 1.7439C5.72556 3.27787 3.27787 5.72556 1.7439 8.73615C0 12.1587 0 16.6392 0 25.6V119.5C0 122.538 2.46243 125 5.5 125C8.53757 125 11 127.462 11 130.5V263.5C11 266.538 8.53757 269 5.5 269C2.46243 269 0 271.462 0 274.5V283.5C0 291.508 6.49187 298 14.5 298H241.4C250.361 298 254.841 298 258.264 296.256C261.274 294.722 263.722 292.274 265.256 289.264C267 285.841 267 281.361 267 272.4V25.6Z" fill="white" fill-opacity="0.1"/>
</svg>
