<svg width="549" height="298" viewBox="0 0 549 298" fill="none" xmlns="http://www.w3.org/2000/svg">
<path fill-rule="evenodd" clip-rule="evenodd" d="M360 12.5C360 5.59644 354.404 0 347.5 0H25.6C16.6392 0 12.1587 0 8.73615 1.7439C5.72556 3.27787 3.27787 5.72556 1.7439 8.73615C0 12.1587 0 16.6392 0 25.6V272.4C0 281.361 0 285.841 1.7439 289.264C3.27787 292.274 5.72556 294.722 8.73615 296.256C12.1587 298 16.6392 298 25.6 298H523.4C532.361 298 536.841 298 540.264 296.256C543.274 294.722 545.722 292.274 547.256 289.264C549 285.841 549 281.361 549 272.4V50.6C549 41.6392 549 37.1587 547.256 33.7362C545.722 30.7256 543.274 28.2779 540.264 26.7439C536.841 25 532.361 25 523.4 25H372.5C365.596 25 360 19.4036 360 12.5Z" fill="white" fill-opacity="0.1"/>
</svg>
