<svg width="18" height="33" viewBox="0 0 18 33" fill="none" xmlns="http://www.w3.org/2000/svg">
<path d="M7.97572 20.1611H5.16891C2.2835 20.1611 0.840819 20.1611 0.23662 19.2225C-0.367578 18.2836 0.238526 16.9839 1.45073 14.3841L7.04626 2.38439C7.81285 0.740456 8.19594 -0.0815106 8.59809 0.00637709C9.00003 0.0942851 9.00003 1.00007 9.00003 2.81166V11.8219C9.00003 12.3013 9.00003 12.5411 9.14999 12.69C9.29994 12.8389 9.54148 12.8389 10.0243 12.8389H12.8311C15.7166 12.8389 17.1593 12.8389 17.7634 13.7775C18.3675 14.7164 17.7616 16.0161 16.5494 18.6157L10.9538 30.6155C10.1872 32.2596 9.80411 33.0815 9.40197 32.9936C9.00003 32.9058 9.00003 31.9998 9.00003 30.1884V21.1781C9.00003 20.6987 9.00003 20.4589 8.85007 20.31C8.70011 20.1611 8.45858 20.1611 7.97572 20.1611Z" fill="#FFE000"/>
</svg>
